<svg width="138" height="53" viewBox="0 0 138 53" fill="none" xmlns="http://www.w3.org/2000/svg">
<g id="logo Ai 1" clip-path="url(#clip0_142_37516)">
<path id="path36" d="M88.453 10.143C88.4634 8.79505 89.5802 7.71324 90.952 7.72212C92.2985 7.73087 93.4067 8.85291 93.4032 10.2039C93.3996 11.5562 92.253 12.6839 90.8919 12.6738C89.5362 12.6637 88.4422 11.5285 88.453 10.143Z" fill="#292929"/>
<path id="path28" d="M119.946 19.4872C119.781 19.5604 119.74 19.6916 119.672 19.7969C119.36 20.2808 119.132 20.8062 118.929 21.3423C118.381 22.7876 118.063 24.2816 117.935 25.8233C117.839 26.974 117.877 28.1106 118.121 29.2383C118.235 29.764 118.438 30.2559 118.734 30.7075C119.159 31.3563 119.77 31.5857 120.519 31.4911C120.719 31.466 120.756 31.4025 120.715 31.1974C120.7 31.1211 120.671 31.0477 120.65 30.9724C120.423 30.157 120.237 29.3336 120.105 28.496C119.946 27.4796 119.839 26.4578 119.758 25.434C119.704 24.7603 119.663 24.0812 119.686 23.4069C119.722 22.3549 119.761 21.3011 119.892 20.2541C119.922 20.0124 120.006 19.772 119.946 19.4872ZM52.1044 17.1254C52.0956 16.9434 52.0937 16.7606 52.0756 16.5795C52.064 16.4637 52.0345 16.3484 52.0023 16.2359C51.8677 15.7659 51.5744 15.6098 51.1056 15.7692C50.8167 15.8674 50.5772 16.0501 50.3664 16.2672C50.0018 16.6429 49.6986 17.0665 49.4219 17.509C48.5728 18.8669 47.9891 20.342 47.5138 21.8633C47.2572 22.6849 47.0772 23.5247 46.9315 24.3734C46.8834 24.653 46.9748 24.7404 47.2287 24.8222C47.3016 24.8457 47.3827 24.8456 47.4604 24.8525C48.03 24.9032 48.5084 24.6905 48.9249 24.3247C49.2381 24.0495 49.5323 23.7533 49.7837 23.4184C50.8831 21.9535 51.5436 20.2946 51.9368 18.5201C52.0382 18.0624 52.0981 17.5967 52.1044 17.1254V17.1254ZM122.631 29.488C122.749 29.4312 122.778 29.3407 122.819 29.2614C123.056 28.8117 123.269 28.3499 123.437 27.8705C124.522 24.7686 125.066 21.5789 124.979 18.2875C124.965 17.7777 124.896 17.2761 124.792 16.7787C124.737 16.5111 124.666 16.2457 124.535 16.0026C124.257 15.4866 123.809 15.3787 123.329 15.7167C123.125 15.86 122.954 16.0412 122.819 16.2507C122.635 16.5352 122.472 16.8303 122.338 17.1434C121.727 18.578 121.494 20.0949 121.414 21.6333C121.349 22.867 121.338 24.1055 121.478 25.3388C121.625 26.6244 121.872 27.8854 122.382 29.0825C122.442 29.2227 122.479 29.381 122.631 29.488V29.488ZM98.7303 32.113C98.7303 32.3997 98.7165 32.6872 98.7336 32.9729C98.7584 33.3885 98.785 33.8077 98.9384 34.2012C99.0841 34.575 99.297 34.6704 99.6781 34.5538C99.9305 34.4767 100.154 34.3464 100.362 34.1856C100.917 33.7579 101.342 33.2148 101.73 32.6416C102.676 31.2454 103.433 29.746 104.136 28.2169C104.387 27.6698 104.595 27.1207 104.636 26.5072C104.745 24.8806 105.006 23.2729 105.315 21.6738C105.905 18.6247 106.704 15.6316 107.743 12.7035C107.765 12.6421 107.786 12.5804 107.803 12.5177C107.839 12.3909 107.793 12.3127 107.658 12.3023C107.568 12.2953 107.476 12.299 107.385 12.2962C106.707 12.2752 106.031 12.3353 105.354 12.3514C104.638 12.3685 103.921 12.3755 103.204 12.3727C102.96 12.3717 102.807 12.4592 102.742 12.6963C102.721 12.7715 102.69 12.8439 102.665 12.9179C102.06 14.6947 101.523 16.4919 101.046 18.307C100.287 21.1947 99.6909 24.117 99.211 27.063C98.9387 28.7351 98.7373 30.4154 98.7303 32.113V32.113ZM94.1776 52.2285C93.8393 52.1128 93.4817 52.1291 93.1353 52.1081C92.0299 52.0412 90.9308 51.9242 89.8329 51.7865C87.9965 51.5562 86.1804 51.2153 84.3752 50.81C81.7653 50.224 79.2287 49.3913 76.688 48.5677C72.9421 47.3535 69.1319 46.3796 65.2674 45.6252C63.0182 45.1861 60.7557 44.8258 58.4775 44.5664C57.0937 44.4088 55.7093 44.2669 54.319 44.1759C53.2795 44.1078 52.2391 44.0668 51.1993 44.0125C49.6228 43.9302 48.0462 43.9352 46.4715 43.9772C45.2237 44.0106 43.9747 44.0679 42.7278 44.1662C41.4946 44.2634 40.2629 44.3724 39.0358 44.5205C37.1872 44.7437 35.351 45.049 33.5258 45.4225C31.1236 45.914 28.7573 46.5368 26.4334 47.3182C25.3217 47.6919 24.2256 48.1083 23.15 48.5772C23.0474 48.6219 22.9495 48.6882 22.7954 48.6834C22.8846 48.5368 23.0112 48.4939 23.1191 48.4356C26.5354 46.5878 29.9874 44.8135 33.5853 43.3378C35.7395 42.4542 37.9863 41.8842 40.245 41.3562C42.376 40.858 44.526 40.4519 46.6891 40.121C48.0141 39.9183 49.3442 39.7505 50.6772 39.603C52.0751 39.4482 53.4763 39.3421 54.8782 39.2469C56.6599 39.126 58.4455 39.1407 60.2303 39.152C61.9631 39.1629 63.6891 39.2839 65.4134 39.4533C67.9587 39.7033 70.4701 40.1361 72.9454 40.7778C74.726 41.2393 76.4645 41.8254 78.167 42.5236C81.3585 43.8322 84.6513 44.8063 88.0331 45.4841C89.7454 45.8273 91.4709 46.0824 93.2076 46.2504C94.2433 46.3506 95.2818 46.4434 96.3254 46.4373C96.9375 46.4337 97.5467 46.5126 98.1604 46.4987C101.569 46.4214 104.942 46.0833 108.243 45.183C111.31 44.3466 114.195 43.1143 116.805 41.278C118.741 39.916 120.408 38.284 121.773 36.3463C121.855 36.2292 121.931 36.1076 122.007 35.9864C122.02 35.9665 122.017 35.9373 122.025 35.8936C121.908 35.8144 121.806 35.9055 121.712 35.9444C120.953 36.2575 120.165 36.4055 119.346 36.3652C118.184 36.308 117.112 36.005 116.23 35.1961C115.683 34.6953 115.265 34.1048 114.969 33.4274C114.558 32.4854 114.365 31.491 114.27 30.4738C114.263 30.3979 114.28 30.3173 114.221 30.2298C114.112 30.2982 114.096 30.42 114.051 30.5195C113.454 31.8276 112.782 33.0924 111.838 34.1895C111.2 34.9325 110.527 35.6416 109.605 36.0496C108.87 36.375 108.1 36.4884 107.314 36.3497C106.492 36.2049 105.903 35.7077 105.497 34.9911C105.147 34.3725 104.948 33.6974 104.8 33.0074C104.586 32.0108 104.479 31.002 104.482 29.9821C104.482 29.8657 104.482 29.7493 104.482 29.5884C104.325 29.6818 104.313 29.8169 104.268 29.9255C103.581 31.5613 102.827 33.1626 101.87 34.6624C101.222 35.6787 100.476 36.6133 99.5742 37.4153C99.0188 37.909 98.3858 38.2536 97.6304 38.3432C96.5958 38.466 95.7921 38.0906 95.2241 37.2274C94.796 36.5765 94.5637 35.8434 94.3949 35.0887C94.1085 33.8084 94.0561 32.5088 94.0747 31.2032C94.0777 30.9954 94.0752 30.7874 94.0752 30.5179C93.9123 30.6646 93.8778 30.8273 93.8099 30.9663C93.2953 32.0218 92.7449 33.0554 92.016 33.9839C91.514 34.6234 90.9424 35.1886 90.2757 35.6567C89.6984 36.062 89.069 36.3285 88.3585 36.3639C87.369 36.4132 86.587 36.024 86.0088 35.2207C85.419 34.4012 85.089 33.4713 84.8714 32.4982C84.6979 31.7223 84.5734 30.9376 84.5407 30.1407C84.5371 30.0553 84.5637 29.9537 84.4229 29.8749C84.2893 30.1715 84.161 30.4656 84.025 30.7562C83.466 31.9511 82.8417 33.1081 82.0059 34.137C81.4938 34.7675 80.9104 35.3217 80.224 35.7645C79.228 36.4071 78.1611 36.5192 77.0395 36.1933C76.1297 35.9289 75.5832 35.2673 75.206 34.4434C74.8762 33.7229 74.7526 32.9521 74.6925 32.1682C74.569 30.5573 74.7857 28.9711 75.0507 27.3904C75.452 24.9974 76.1027 22.6609 76.6814 20.3082C76.8308 19.7009 76.9759 19.0929 77.0853 18.4768C77.1289 18.2317 77.1564 17.985 77.1228 17.7381C77.0986 17.5598 77.0107 17.5196 76.8471 17.5951C76.7025 17.6618 76.593 17.7757 76.4816 17.8854C75.9017 18.4569 75.4392 19.1197 75.0191 19.8107C74.0277 21.4417 73.2241 23.1636 72.5838 24.9609C72.0106 26.5699 71.4972 28.1973 71.1754 29.8781C70.9202 31.21 70.7531 32.5523 70.7144 33.9105C70.7006 34.3916 70.6545 34.8718 70.6579 35.3543C70.6608 35.7618 70.4212 36.0032 70.0689 36.1462C69.4735 36.3878 68.8519 36.4044 68.2233 36.338C68.1587 36.3312 68.0953 36.3132 68.0308 36.3044C66.9198 36.152 66.1894 35.5082 65.74 34.514C65.3913 33.7425 65.2594 32.9229 65.2302 32.082C65.1684 30.3095 65.4613 28.5774 65.8209 26.8532C66.2388 24.8492 66.8222 22.8876 67.3515 20.9122C67.564 20.1193 67.7732 19.3258 67.9282 18.519C67.9753 18.2742 68.0056 18.0281 67.9771 17.7809C67.952 17.5633 67.8501 17.5126 67.654 17.6144C67.456 17.7172 67.2913 17.8664 67.1314 18.0211C66.186 18.9368 65.4533 20.0117 64.8093 21.1493C63.19 24.0102 62.1256 27.0765 61.478 30.291C61.2696 31.3256 61.1695 32.3762 61.0999 33.4304C61.0603 34.029 61.0344 34.6268 61.0397 35.2259C61.0426 35.554 60.8853 35.7677 60.603 35.9037C60.4859 35.9601 60.3657 36.0132 60.2419 36.0522C59.4124 36.3131 58.5577 36.4097 57.6955 36.3521C56.853 36.2959 56.3433 35.8287 56.1017 34.9722C55.9452 34.4172 55.8936 33.8454 55.8685 33.2727C55.8525 32.909 55.8474 32.5432 55.9117 32.1808C55.9288 32.0844 55.9381 31.9827 55.8879 31.842C55.5343 32.3573 55.2277 32.8537 54.8601 33.3074C54.2164 34.1021 53.4919 34.8099 52.646 35.387C51.772 35.9832 50.8004 36.277 49.7435 36.3014C48.8682 36.3215 48.0006 36.2718 47.1401 36.0957C45.0202 35.6617 43.466 34.4396 42.3203 32.6492C41.8032 31.8409 41.4527 30.9595 41.2171 30.0306C41.1797 29.8833 41.1667 29.7249 41.0832 29.5939C40.9462 29.6123 40.9504 29.7229 40.9181 29.7987C40.3141 31.2175 39.6178 32.5851 38.6897 33.8242C38.211 34.4635 37.6672 35.0386 37.0345 35.53C35.8339 36.4627 34.518 36.5841 33.122 36.0813C32.3754 35.8124 31.8687 35.2548 31.4762 34.5879C31.005 33.7876 30.7827 32.9091 30.6727 31.9938C30.4837 30.4221 30.6801 28.8737 30.9453 27.3305C31.4256 24.536 32.3125 21.8766 33.6245 19.3606C33.6695 19.2743 33.7531 19.1941 33.7121 19.0586C33.4278 19.1947 33.1536 19.3371 32.8706 19.4593C32.2223 19.7393 31.5563 19.9671 30.8469 20.0227C30.6153 20.0409 30.5457 20.1803 30.4797 20.3612C30.1358 21.3035 29.8029 22.2503 29.4362 23.1838C28.4052 25.8079 27.2083 28.3517 25.7133 30.748C24.9381 31.9906 24.0706 33.1604 22.996 34.1646C22.4121 34.7102 21.7732 35.1771 21.0475 35.5218C20.5675 35.7498 20.0569 35.8453 19.5353 35.8774C19.0339 35.9082 18.7114 35.665 18.6093 35.1658C18.4309 34.2933 18.6955 33.5433 19.3149 32.9182C19.5125 32.7188 19.7721 32.6051 20.0542 32.6007C20.7658 32.5899 21.3203 32.2453 21.8271 31.7951C22.7522 30.9732 23.4853 29.9921 24.1202 28.9402C25.6124 26.4683 26.8718 23.8835 27.8096 21.1482C27.9192 20.8284 28.01 20.5008 28.0872 20.1715C28.1487 19.9089 28.1283 19.8724 27.873 19.8121C27.4567 19.7137 27.1974 19.4446 27.0011 19.0881C26.7774 18.6817 26.6489 18.2444 26.6143 17.7859C26.4923 16.1683 26.8632 14.6764 27.8228 13.3575C28.3461 12.6384 28.9884 12.0577 29.8918 11.8443C30.2655 11.7559 30.6438 11.7548 31.0182 11.8049C31.3543 11.8499 31.6112 12.0422 31.8223 12.3128C32.3706 13.0156 32.2936 14.4016 31.7548 15.1168C31.5605 15.3745 31.2722 15.4623 30.9643 15.4851C30.7318 15.5023 30.4983 15.4953 30.2613 15.4819C30.6466 15.7702 31.0608 15.9295 31.5526 15.8017C32.221 15.6279 32.8087 15.2974 33.3434 14.8721C33.8225 14.4911 34.2918 14.0974 34.7566 13.699C35.6033 12.9732 36.2113 12.9633 37.0776 13.6807C37.9293 14.3859 38.5406 15.2655 38.9401 16.2925C39.0199 16.4977 39.08 16.7143 39.1186 16.9312C39.2089 17.4377 39.1738 17.9325 38.796 18.3233C38.319 18.8169 38.0648 19.4264 37.8348 20.0515C37.2439 21.6577 36.8164 23.3094 36.5116 24.9912C36.2165 26.6199 35.9768 28.2567 36.02 29.92C36.0323 30.3906 36.1054 30.8529 36.2319 31.3069C36.2778 31.4719 36.3427 31.6267 36.4429 31.7658C36.6588 32.0657 36.9396 32.1661 37.2982 32.069C37.6605 31.9709 37.9544 31.7599 38.2235 31.5066C38.9611 30.8126 39.5324 29.989 40.067 29.1377C40.2678 28.8179 40.4484 28.4854 40.6448 28.1627C40.7991 27.9093 40.8537 27.6419 40.8454 27.3438C40.7803 25.0038 41.2373 22.7576 42.1015 20.591C42.9306 18.5124 44.1542 16.7039 45.8362 15.2153C47.0148 14.1722 48.3566 13.4645 49.9256 13.2289C50.6365 13.1222 51.3481 13.0892 52.0643 13.2105C53.393 13.4357 54.2561 14.227 54.7983 15.4188C55.2606 16.435 55.3345 17.512 55.2233 18.5984C55.043 20.3624 54.471 22.003 53.53 23.5072C52.936 24.4566 52.1833 25.2614 51.2511 25.8923C50.3097 26.5293 49.2694 26.7254 48.1573 26.583C47.6368 26.5163 47.2045 26.2523 46.8289 25.9052C46.7935 25.9265 46.756 25.9378 46.7554 25.951C46.6878 27.245 46.6949 28.5352 47.1771 29.7642C47.6831 31.0535 48.5797 31.9362 49.9821 32.1543C51.2054 32.3445 52.3911 32.2133 53.4841 31.5363C54.5663 30.8661 55.4592 30.0105 56.1887 28.9749C56.3026 28.8133 56.3884 28.6432 56.4292 28.4465C56.9854 25.7681 57.6614 23.115 58.1559 20.4237C58.4358 18.8998 58.6956 17.3702 58.6679 15.8101C58.6584 15.2732 58.5844 14.7463 58.4507 14.2271C58.3251 13.7395 58.4587 13.5093 58.9395 13.335C60.4497 12.7879 62.3246 13.5747 63.0879 14.6145C63.3801 15.0126 63.5052 15.4393 63.4049 15.9365C63.1626 17.1376 62.8346 18.3181 62.564 19.5123C62.1409 21.3799 61.6854 23.2403 61.3186 25.1203C61.3047 25.1914 61.2537 25.2638 61.3258 25.3642C61.3813 25.2011 61.4335 25.0564 61.4799 24.9099C62.2706 22.4146 63.3437 20.0453 64.6745 17.7934C65.399 16.5677 66.2151 15.4071 67.2262 14.3951C67.5125 14.1085 67.8242 13.8518 68.167 13.6352C68.5746 13.3778 69.0159 13.2377 69.5026 13.2802C70.2589 13.3463 71.0035 13.4608 71.6811 13.8371C72.0944 14.0667 72.4595 14.3487 72.7689 14.7142C73.1702 15.1883 73.3159 15.7399 73.3488 16.3382C73.3591 16.5269 73.2782 16.6948 73.217 16.8654C72.6493 18.4478 72.1097 20.0396 71.6585 21.6594C71.3998 22.5879 71.1698 23.5245 70.9293 24.458C70.9081 24.5405 70.8612 24.6265 70.9378 24.7431C71.0668 24.3957 71.1848 24.0676 71.3101 23.7423C72.3198 21.1213 73.5072 18.589 75.0754 16.249C75.562 15.523 76.0948 14.8318 76.713 14.2104C76.7681 14.155 76.8246 14.1009 76.8814 14.0471C77.5364 13.4247 78.2712 13.1474 79.1991 13.349C80.4364 13.6178 81.5223 14.1048 82.3146 15.1309C82.6378 15.5495 82.7673 16.0333 82.808 16.5494C82.8177 16.6711 82.7818 16.7793 82.7305 16.8872C81.972 18.4823 81.4575 20.1641 80.9808 21.8581C80.3839 23.9796 79.9073 26.1283 79.6006 28.3117C79.492 29.085 79.3969 29.8621 79.4187 30.6462C79.4299 31.05 79.4646 31.4539 79.5719 31.8448C79.77 32.5668 80.2915 32.7895 80.9529 32.4294C81.467 32.1494 81.842 31.7081 82.2042 31.2644C82.8655 30.4542 83.4062 29.5626 83.9108 28.6488C83.9674 28.5462 84.0068 28.4315 84.0762 28.3388C84.429 27.8672 84.5123 27.3201 84.5384 26.7545C84.6378 24.5977 85.0121 22.4848 85.5729 20.4038C85.9674 18.9401 86.4849 17.5214 87.2141 16.188C87.6094 15.4652 88.0773 14.7913 88.6727 14.2149C89.2312 13.6742 89.8772 13.2878 90.6671 13.239C91.4374 13.1913 92.2038 13.2559 92.9339 13.5371C93.2055 13.6417 93.4329 13.8178 93.6025 14.0593C93.7365 14.25 93.7617 14.4581 93.6097 14.6393C92.1485 16.3798 91.5572 18.511 90.9438 20.6241C90.3514 22.6649 89.9011 24.7409 89.6049 26.847C89.4525 27.9308 89.3522 29.021 89.3548 30.1162C89.3562 30.6489 89.3958 31.1841 89.5091 31.7079C89.7054 32.6164 90.2319 32.8333 91.0183 32.3303C91.5095 32.0161 91.8772 31.5725 92.2283 31.1192C92.9727 30.1583 93.5867 29.1139 94.1585 28.0437C94.2219 27.925 94.2428 27.7996 94.2573 27.6693C94.5913 24.647 95.1808 21.6713 95.9099 18.7224C96.3853 16.7996 96.9121 14.8907 97.5752 13.0223C97.6094 12.9259 97.6326 12.8257 97.6753 12.6769C96.5654 12.6375 95.4927 12.8122 94.4167 12.8486C94.4084 12.8234 94.4 12.7981 94.3917 12.7728C94.583 12.6268 94.7804 12.4881 94.9644 12.3333C95.7213 11.6967 96.1169 10.8948 96.0217 9.8936C95.9694 9.34274 95.7726 8.8302 95.5086 8.34499C95.2332 7.83875 94.8898 7.38102 94.5095 6.94949C94.4439 6.87505 94.339 6.82126 94.3507 6.67578C94.5298 6.62375 94.7044 6.69654 94.8742 6.72477C95.9296 6.9003 96.9948 6.96658 98.0608 7.01505C98.5681 7.03808 99.0771 7.0301 99.5821 7.09031C99.8811 7.12596 100.052 7.01767 100.195 6.74064C100.775 5.61595 101.425 4.53223 102.207 3.53311C102.545 3.10123 102.903 2.69011 103.346 2.35874C103.851 1.98092 104.399 1.75592 105.046 1.76937C105.66 1.78216 106.269 1.80487 106.857 2.00719C107.12 2.09766 107.357 2.22874 107.549 2.43364C107.831 2.73502 107.841 2.94407 107.556 3.24627C106.597 4.26071 105.882 5.43779 105.241 6.66636C105.211 6.7241 105.179 6.78138 105.155 6.84178C105.08 7.03128 105.104 7.07459 105.306 7.08609C105.462 7.09496 105.619 7.0975 105.775 7.08452C106.971 6.98448 108.171 7.03925 109.369 7.0113C109.395 7.01071 109.421 7.00884 109.447 7.01072C109.922 7.04531 110.225 6.88131 110.453 6.41279C110.956 5.38134 111.596 4.42597 112.306 3.52154C112.629 3.11022 112.992 2.73475 113.393 2.40084C113.887 1.98917 114.442 1.74525 115.11 1.76804C115.724 1.789 116.334 1.80284 116.923 2.00121C117.2 2.09433 117.448 2.22925 117.647 2.44689C117.914 2.73909 117.932 2.95478 117.653 3.22872C116.682 4.18428 116.018 5.34889 115.375 6.52929C115.35 6.57499 115.323 6.62004 115.303 6.66785C115.258 6.77567 115.29 6.848 115.411 6.86024C115.501 6.86938 115.593 6.86856 115.684 6.86864C116.713 6.86954 117.743 6.84988 118.769 6.94464C119.041 6.9697 119.315 6.99562 119.582 7.05168C120.125 7.16588 120.518 7.48596 120.774 7.97816C121.084 8.57585 121.152 9.22905 121.133 9.87897C121.102 10.8971 120.919 11.8982 120.636 12.8786C120.618 12.9411 120.601 13.004 120.584 13.0667C120.53 13.2584 120.415 13.3064 120.228 13.2394C119.749 13.0672 119.253 12.9576 118.752 12.8678C117.764 12.6906 116.768 12.5846 115.767 12.519C114.988 12.4679 114.209 12.4127 113.429 12.3742C112.994 12.3527 112.992 12.3658 112.849 12.7791C111.379 17.0252 110.291 21.367 109.615 25.8096C109.364 27.4595 109.208 29.1187 109.266 30.7921C109.281 31.2237 109.315 31.6517 109.446 32.0643C109.618 32.604 109.881 32.7398 110.427 32.5757C110.822 32.4569 111.148 32.2229 111.452 31.949C112.395 31.0993 113.049 30.0356 113.708 28.9694C114.158 28.2429 114.363 27.4653 114.493 26.6292C114.92 23.8888 115.789 21.2913 117.182 18.8825C117.738 17.9204 118.39 17.0262 119.179 16.2388C119.739 15.6795 120.367 15.2202 121.149 15.0199C121.317 14.9771 121.419 14.878 121.505 14.7402C121.663 14.4847 121.855 14.2556 122.06 14.0357C122.641 13.4153 123.356 13.2003 124.186 13.2887C125.393 13.4172 126.355 13.9715 127.1 14.9235C127.858 15.8913 128.267 17.0088 128.514 18.1945C128.832 19.7229 128.881 21.2641 128.766 22.8203C128.627 24.6902 128.269 26.5125 127.658 28.2811C127.259 29.4381 126.825 30.5843 126.33 31.7056C126.304 31.7651 126.277 31.8244 126.249 31.8833C126.182 32.0258 126.23 32.0967 126.381 32.1317C126.739 32.2143 127.105 32.2412 127.466 32.2576C129.377 32.3442 131.203 32.0021 132.901 31.0944C134.362 30.3139 135.565 29.2333 136.553 27.9087C136.762 27.6293 136.969 27.3491 137.221 27.01C137.24 27.2383 137.148 27.3532 137.09 27.473C136.158 29.3888 135.03 31.1852 133.78 32.9073C132.029 35.3188 130.063 37.5417 127.892 39.5798C124.991 42.3026 121.817 44.6561 118.33 46.5833C114.6 48.6452 110.663 50.1636 106.505 51.1021C104.815 51.4836 103.108 51.765 101.383 51.9471C100.515 52.0387 99.6457 52.0949 98.7766 52.1639C98.6735 52.1721 98.5717 52.18 98.478 52.2285H94.1776Z" fill="#292929"/>
<path id="path32" d="M15.1201 4.5603C15.6359 4.6614 16.0731 4.77415 16.4755 4.9925C16.8276 5.18348 17.1161 5.43936 17.313 5.78973C17.501 6.12426 17.5234 6.45352 17.2694 6.77336C17.0153 7.09324 16.8511 7.46418 16.7052 7.84058C16.4041 8.61772 16.0953 9.39278 15.8262 10.1812C14.4411 14.2383 13.1962 18.3362 12.2107 22.5116C12.0573 23.162 12.1907 23.7169 12.4629 24.2763C12.6994 24.7621 13.0879 24.9857 13.6344 24.9435C13.8849 24.9241 14.1228 24.8775 14.351 24.7722C14.7105 24.6062 15.0182 24.3688 15.3027 24.0975C16.5141 22.9424 17.3144 21.5134 17.9938 20.011C19.0304 17.7185 19.72 15.3213 20.0849 12.8319C20.3104 11.2928 20.3938 9.7473 20.1927 8.19956C20.0619 7.19383 19.7755 6.24077 19.1319 5.4236C18.7537 4.94335 18.2749 4.62825 17.6887 4.47918C17.047 4.31599 16.3943 4.37084 15.7465 4.43043C15.5635 4.44728 15.3625 4.43805 15.1201 4.5603ZM11.5275 25.8878C11.3529 26.5664 11.2623 27.1566 11.1604 27.7442C10.8778 29.3747 10.6767 31.0163 10.5452 32.6651C10.4259 34.1605 10.4037 35.6565 10.6779 37.1425C10.7466 37.5149 10.839 37.8803 10.9544 38.2404C11.1458 38.838 10.9711 39.314 10.4412 39.6485C9.98386 39.9371 9.47163 40.0359 8.9467 40.0331C7.83292 40.0272 6.80827 39.7344 5.95154 38.9861C5.00895 38.163 4.5707 37.1207 4.61617 35.8703C4.69842 33.61 5.11041 31.3937 5.52302 29.1792C6.22955 25.3871 7.09339 21.6291 8.073 17.8988C8.88744 14.7974 9.8197 11.7318 11.0392 8.76088C11.5047 7.62661 12.0057 6.50982 12.7241 5.50586C12.7457 5.47575 12.754 5.43623 12.7776 5.37919C12.6232 5.35878 12.5222 5.45081 12.4167 5.5084C11.3061 6.1148 10.355 6.91754 9.52672 7.87006C8.66858 8.8569 7.91193 9.91396 7.30854 11.077C6.36259 12.9002 5.71048 14.8096 5.60312 16.8795C5.58291 17.2695 5.41504 17.4085 5.02162 17.3648C4.83885 17.3445 4.66382 17.2884 4.4988 17.2104C2.93793 16.4729 1.81621 15.3005 1.11538 13.7321C0.81396 13.0576 0.794804 12.3383 0.955133 11.6227C1.21734 10.4524 1.73571 9.38672 2.35302 8.36892C3.79607 5.98958 5.68616 4.03975 8.03989 2.55327C9.59959 1.56826 11.2876 0.884176 13.1232 0.642803C15.0528 0.389114 16.975 0.442987 18.8382 1.08028C20.9781 1.81222 22.5881 3.18649 23.6665 5.17624C24.4618 6.64376 24.8467 8.22642 25.002 9.87952C25.0815 10.7257 25.0939 11.5716 25.0661 12.4169C24.9908 14.7004 24.5274 16.9123 23.7675 19.0633C23.1089 20.9273 22.2544 22.6937 21.1071 24.3103C20.3859 25.3266 19.5427 26.2248 18.5379 26.9689C17.2455 27.926 15.8149 28.2746 14.2229 28.0197C13.2244 27.8598 12.5147 27.2977 11.9435 26.5116C11.8151 26.335 11.7005 26.1484 11.5275 25.8878" fill="#292929"/>
</g>
<defs>
<clipPath id="clip0_142_37516">
<rect width="136.833" height="51.8012" fill="white" transform="translate(0.583496 0.310547)"/>
</clipPath>
</defs>
</svg>
