<svg width="27" height="28" viewBox="0 0 27 28" fill="none" xmlns="http://www.w3.org/2000/svg">
<g id="Frame">
<g id="Group">
<path id="Vector" d="M13.4287 8.57422C10.0954 8.57422 7.3335 11.2885 7.3335 14.6695C7.3335 18.0504 10.0478 20.7647 13.4287 20.7647C16.8097 20.7647 19.524 18.0028 19.524 14.6695C19.524 11.3361 16.7621 8.57422 13.4287 8.57422ZM13.4287 18.5742C11.2859 18.5742 9.52397 16.8123 9.52397 14.6695C9.52397 12.5266 11.2859 10.7647 13.4287 10.7647C15.5716 10.7647 17.3335 12.5266 17.3335 14.6695C17.3335 16.8123 15.5716 18.5742 13.4287 18.5742Z" fill="#292929"/>
<path id="Vector_2" d="M19.7621 9.81171C20.5247 9.81171 21.143 9.19344 21.143 8.43076C21.143 7.66808 20.5247 7.0498 19.7621 7.0498C18.9994 7.0498 18.3811 7.66808 18.3811 8.43076C18.3811 9.19344 18.9994 9.81171 19.7621 9.81171Z" fill="#292929"/>
<path id="Vector_3" d="M23.3334 4.85961C22.0953 3.57389 20.3334 2.90723 18.3334 2.90723H8.5239C4.38105 2.90723 1.61914 5.66913 1.61914 9.81199V19.5739C1.61914 21.6215 2.28581 23.3834 3.61914 24.6691C4.90485 25.9072 6.61914 26.5263 8.57152 26.5263H18.2858C20.3334 26.5263 22.0477 25.8596 23.2858 24.6691C24.5715 23.431 25.2382 21.6691 25.2382 19.6215V9.81199C25.2382 7.81199 24.5715 6.0977 23.3334 4.85961ZM23.1429 19.6215C23.1429 21.0977 22.6191 22.2882 21.762 23.0977C20.9049 23.9072 19.7144 24.3358 18.2858 24.3358H8.57152C7.14295 24.3358 5.95247 23.9072 5.09533 23.0977C4.23819 22.2406 3.80962 21.0501 3.80962 19.5739V9.81199C3.80962 8.38342 4.23819 7.19294 5.09533 6.3358C5.90485 5.52627 7.14295 5.0977 8.57152 5.0977H18.381C19.8096 5.0977 21.0001 5.52627 21.8572 6.38342C22.6668 7.24056 23.1429 8.43104 23.1429 9.81199V19.6215Z" fill="#292929"/>
</g>
</g>
</svg>
