<svg width="28" height="29" viewBox="0 0 28 29" fill="none" xmlns="http://www.w3.org/2000/svg">
<path d="M7.82467 25.2668H3.0791V9.44824H7.82467V25.2668ZM25.2251 25.2668H20.4795V16.8165C20.4795 14.6146 19.6949 13.5184 18.14 13.5184C16.9077 13.5184 16.1262 14.1321 15.7339 15.3612C15.7339 17.3575 15.7339 25.2668 15.7339 25.2668H10.9884C10.9884 25.2668 11.0517 11.0301 10.9884 9.44824H14.7342L15.0237 12.612H15.1218C16.0946 11.0301 17.6496 9.9576 19.7819 9.9576C21.4033 9.9576 22.7147 10.4084 23.716 11.541C24.7236 12.6752 25.2251 14.197 25.2251 16.3341V25.2668Z" fill="#292929"/>
<path d="M5.45188 7.86666C6.80601 7.86666 7.90375 6.80433 7.90375 5.49388C7.90375 4.18343 6.80601 3.12109 5.45188 3.12109C4.09774 3.12109 3 4.18343 3 5.49388C3 6.80433 4.09774 7.86666 5.45188 7.86666Z" fill="#292929"/>
</svg>
