<svg width="138" height="52" viewBox="0 0 138 52" fill="none" xmlns="http://www.w3.org/2000/svg">
<g id="logo Ai 1" clip-path="url(#clip0_142_37493)">
<path id="path36" d="M88.453 9.83242C88.4634 8.4845 89.5802 7.4027 90.952 7.41157C92.2985 7.42033 93.4067 8.54236 93.4032 9.89333C93.3996 11.2456 92.253 12.3733 90.8919 12.3632C89.5362 12.3531 88.4422 11.2179 88.453 9.83242Z" fill="#861889"/>
<path id="path28" d="M119.946 19.1769C119.781 19.2501 119.74 19.3813 119.672 19.4866C119.36 19.9705 119.132 20.4959 118.929 21.032C118.381 22.4773 118.063 23.9713 117.935 25.513C117.839 26.6637 117.877 27.8003 118.121 28.928C118.235 29.4537 118.438 29.9456 118.734 30.3972C119.159 31.046 119.77 31.2754 120.519 31.1808C120.719 31.1557 120.756 31.0922 120.715 30.8871C120.7 30.8108 120.671 30.7374 120.65 30.6621C120.423 29.8467 120.237 29.0233 120.105 28.1857C119.946 27.1693 119.839 26.1475 119.758 25.1237C119.704 24.45 119.663 23.7709 119.686 23.0966C119.722 22.0446 119.761 20.9908 119.892 19.9438C119.922 19.7021 120.006 19.4617 119.946 19.1769ZM52.1044 16.815C52.0956 16.6331 52.0937 16.4503 52.0756 16.2692C52.064 16.1534 52.0345 16.0381 52.0023 15.9256C51.8677 15.4555 51.5744 15.2995 51.1056 15.4589C50.8167 15.5571 50.5772 15.7398 50.3664 15.9569C50.0018 16.3326 49.6986 16.7562 49.4219 17.1987C48.5728 18.5566 47.9891 20.0317 47.5138 21.553C47.2572 22.3746 47.0772 23.2143 46.9314 24.0631C46.8834 24.3427 46.9748 24.4301 47.2287 24.5119C47.3016 24.5354 47.3827 24.5353 47.4604 24.5422C48.03 24.5929 48.5084 24.3802 48.9249 24.0144C49.2381 23.7392 49.5323 23.443 49.7837 23.108C50.8831 21.6432 51.5436 19.9843 51.9368 18.2098C52.0382 17.7521 52.0981 17.2864 52.1044 16.815ZM122.631 29.1777C122.749 29.1209 122.778 29.0303 122.819 28.9511C123.056 28.5014 123.269 28.0396 123.437 27.5602C124.522 24.4583 125.066 21.2686 124.979 17.9772C124.965 17.4674 124.896 16.9658 124.792 16.4684C124.737 16.2008 124.666 15.9354 124.535 15.6923C124.257 15.1763 123.809 15.0684 123.329 15.4064C123.125 15.5497 122.954 15.7309 122.819 15.9404C122.635 16.2249 122.472 16.52 122.338 16.8331C121.727 18.2677 121.494 19.7846 121.414 21.323C121.349 22.5567 121.338 23.7952 121.478 25.0285C121.625 26.3141 121.872 27.5751 122.382 28.7722C122.442 28.9124 122.479 29.0707 122.631 29.1777ZM98.7303 31.8027C98.7303 32.0894 98.7166 32.3769 98.7336 32.6626C98.7584 33.0782 98.785 33.4974 98.9384 33.8909C99.0841 34.2647 99.297 34.3601 99.6781 34.2435C99.9305 34.1664 100.154 34.0361 100.362 33.8753C100.917 33.4476 101.342 32.9044 101.73 32.3313C102.676 30.9351 103.433 29.4357 104.136 27.9066C104.387 27.3595 104.595 26.8104 104.636 26.1969C104.745 24.5702 105.006 22.9626 105.315 21.3635C105.905 18.3144 106.704 15.3213 107.743 12.3932C107.765 12.3318 107.786 12.2701 107.803 12.2074C107.839 12.0806 107.793 12.0024 107.658 11.992C107.568 11.9849 107.476 11.9887 107.385 11.9858C106.707 11.9649 106.031 12.025 105.354 12.0411C104.638 12.0582 103.921 12.0652 103.204 12.0624C102.96 12.0614 102.807 12.1489 102.742 12.386C102.721 12.4612 102.69 12.5336 102.665 12.6076C102.06 14.3844 101.523 16.1816 101.046 17.9967C100.287 20.8844 99.6909 23.8067 99.211 26.7527C98.9387 28.4248 98.7373 30.1051 98.7303 31.8027ZM94.1776 51.9182C93.8393 51.8025 93.4817 51.8188 93.1353 51.7978C92.0299 51.7309 90.9308 51.6139 89.8329 51.4762C87.9965 51.2459 86.1804 50.905 84.3752 50.4997C81.7653 49.9137 79.2287 49.081 76.688 48.2574C72.9421 47.0432 69.1319 46.0693 65.2674 45.3149C63.0182 44.8758 60.7557 44.5155 58.4775 44.2561C57.0937 44.0985 55.7093 43.9566 54.319 43.8656C53.2795 43.7975 52.2391 43.7565 51.1993 43.7022C49.6228 43.6199 48.0462 43.6249 46.4715 43.6669C45.2237 43.7003 43.9747 43.7576 42.7278 43.8559C41.4946 43.9531 40.2629 44.0621 39.0358 44.2102C37.1872 44.4334 35.351 44.7387 33.5258 45.1122C31.1236 45.6037 28.7573 46.2265 26.4334 47.0079C25.3217 47.3816 24.2256 47.798 23.15 48.2669C23.0474 48.3116 22.9495 48.3779 22.7954 48.3731C22.8846 48.2265 23.0112 48.1836 23.1191 48.1253C26.5354 46.2775 29.9874 44.5032 33.5853 43.0275C35.7395 42.1439 37.9863 41.5739 40.245 41.0459C42.376 40.5477 44.526 40.1416 46.6891 39.8107C48.0141 39.608 49.3442 39.4402 50.6772 39.2926C52.0751 39.1379 53.4763 39.0318 54.8782 38.9366C56.6599 38.8157 58.4455 38.8304 60.2303 38.8417C61.9631 38.8526 63.6891 38.9736 65.4134 39.143C67.9587 39.393 70.4701 39.8257 72.9454 40.4675C74.726 40.929 76.4645 41.5151 78.167 42.2133C81.3585 43.5219 84.6513 44.496 88.0331 45.1738C89.7454 45.517 91.4709 45.7721 93.2076 45.9401C94.2433 46.0403 95.2818 46.1331 96.3254 46.127C96.9375 46.1234 97.5467 46.2023 98.1604 46.1884C101.569 46.1111 104.942 45.773 108.243 44.8727C111.31 44.0363 114.195 42.804 116.805 40.9677C118.741 39.6057 120.408 37.9737 121.773 36.036C121.855 35.9189 121.931 35.7973 122.007 35.6761C122.02 35.6562 122.017 35.627 122.025 35.5833C121.908 35.5041 121.806 35.5952 121.712 35.6341C120.953 35.9472 120.165 36.0952 119.346 36.0549C118.184 35.9977 117.112 35.6947 116.23 34.8858C115.683 34.385 115.265 33.7945 114.969 33.1171C114.558 32.1751 114.365 31.1807 114.27 30.1635C114.263 30.0876 114.28 30.007 114.221 29.9195C114.112 29.9879 114.096 30.1097 114.051 30.2092C113.454 31.5173 112.782 32.7821 111.838 33.8792C111.2 34.6222 110.527 35.3313 109.605 35.7393C108.87 36.0647 108.1 36.1781 107.314 36.0394C106.492 35.8946 105.903 35.3974 105.497 34.6808C105.147 34.0622 104.948 33.3871 104.8 32.6971C104.586 31.7005 104.479 30.6917 104.482 29.6718C104.482 29.5554 104.482 29.439 104.482 29.2781C104.325 29.3715 104.313 29.5066 104.268 29.6152C103.581 31.251 102.827 32.8523 101.87 34.3521C101.222 35.3684 100.476 36.303 99.5742 37.105C99.0188 37.5987 98.3858 37.9433 97.6304 38.0329C96.5958 38.1557 95.7921 37.7803 95.2241 36.9171C94.796 36.2662 94.5637 35.5331 94.3949 34.7784C94.1085 33.4981 94.0561 32.1985 94.0747 30.8929C94.0777 30.6851 94.0752 30.4771 94.0752 30.2076C93.9123 30.3543 93.8778 30.517 93.8099 30.656C93.2953 31.7115 92.7449 32.7451 92.016 33.6736C91.514 34.3131 90.9424 34.8783 90.2757 35.3464C89.6984 35.7517 89.069 36.0182 88.3585 36.0536C87.369 36.1029 86.587 35.7137 86.0088 34.9104C85.419 34.0909 85.0891 33.161 84.8714 32.1879C84.6979 31.412 84.5734 30.6273 84.5407 29.8304C84.5371 29.745 84.5637 29.6434 84.4229 29.5646C84.2893 29.8612 84.161 30.1553 84.025 30.4459C83.466 31.6408 82.8417 32.7978 82.0059 33.8267C81.4938 34.4572 80.9104 35.0114 80.224 35.4542C79.228 36.0968 78.1611 36.2089 77.0395 35.883C76.1297 35.6186 75.5832 34.957 75.206 34.1331C74.8762 33.4126 74.7526 32.6418 74.6925 31.8579C74.569 30.247 74.7857 28.6608 75.0507 27.0801C75.452 24.6871 76.1027 22.3506 76.6814 19.9979C76.8308 19.3906 76.9759 18.7826 77.0853 18.1665C77.1289 17.9214 77.1564 17.6747 77.1228 17.4278C77.0986 17.2495 77.0107 17.2093 76.8471 17.2848C76.7025 17.3515 76.593 17.4654 76.4816 17.5751C75.9017 18.1465 75.4392 18.8094 75.0191 19.5004C74.0277 21.1314 73.2241 22.8533 72.5838 24.6506C72.0106 26.2596 71.4972 27.887 71.1754 29.5678C70.9202 30.8997 70.7531 32.242 70.7144 33.6001C70.7006 34.0813 70.6545 34.5615 70.6579 35.044C70.6608 35.4515 70.4212 35.6929 70.0689 35.8359C69.4735 36.0775 68.8519 36.0941 68.2233 36.0277C68.1587 36.0208 68.0953 36.0029 68.0308 35.9941C66.9198 35.8417 66.1894 35.1979 65.74 34.2037C65.3913 33.4322 65.2594 32.6126 65.2302 31.7717C65.1684 29.9992 65.4613 28.2671 65.8209 26.5429C66.2388 24.5389 66.8222 22.5773 67.3515 20.6018C67.564 19.809 67.7732 19.0155 67.9282 18.2087C67.9753 17.9639 68.0056 17.7178 67.9771 17.4706C67.952 17.253 67.8501 17.2023 67.654 17.3041C67.456 17.4069 67.2913 17.5561 67.1314 17.7108C66.186 18.6265 65.4533 19.7014 64.8093 20.839C63.19 23.6999 62.1256 26.7662 61.478 29.9807C61.2696 31.0153 61.1695 32.0659 61.0999 33.1201C61.0603 33.7187 61.0344 34.3165 61.0397 34.9156C61.0426 35.2437 60.8853 35.4574 60.603 35.5934C60.4859 35.6498 60.3657 35.7029 60.2419 35.7419C59.4124 36.0028 58.5577 36.0994 57.6955 36.0418C56.853 35.9856 56.3433 35.5184 56.1017 34.6619C55.9452 34.1069 55.8936 33.5351 55.8685 32.9623C55.8525 32.5987 55.8474 32.2329 55.9117 31.8705C55.9288 31.7741 55.938 31.6724 55.8879 31.5317C55.5343 32.047 55.2277 32.5434 54.8601 32.9971C54.2164 33.7918 53.4919 34.4996 52.646 35.0767C51.772 35.6729 50.8004 35.9667 49.7435 35.9911C48.8682 36.0112 48.0006 35.9615 47.1401 35.7854C45.0202 35.3514 43.4661 34.1293 42.3203 32.3389C41.8032 31.5306 41.4527 30.6492 41.2171 29.7203C41.1797 29.573 41.1667 29.4146 41.0832 29.2836C40.9462 29.302 40.9504 29.4126 40.9181 29.4884C40.3141 30.9072 39.6178 32.2748 38.6897 33.5139C38.211 34.1531 37.6672 34.7283 37.0345 35.2197C35.8339 36.1524 34.518 36.2738 33.122 35.771C32.3754 35.5021 31.8687 34.9445 31.4762 34.2776C31.005 33.4773 30.7827 32.5988 30.6727 31.6835C30.4837 30.1118 30.6801 28.5634 30.9453 27.0202C31.4256 24.2257 32.3125 21.5663 33.6245 19.0503C33.6695 18.964 33.7531 18.8838 33.7121 18.7483C33.4278 18.8844 33.1536 19.0268 32.8706 19.149C32.2223 19.429 31.5563 19.6568 30.8469 19.7124C30.6153 19.7306 30.5457 19.87 30.4797 20.0509C30.1358 20.9932 29.8029 21.94 29.4362 22.8735C28.4052 25.4975 27.2083 28.0414 25.7133 30.4377C24.9381 31.6803 24.0706 32.8501 22.996 33.8543C22.4121 34.3999 21.7732 34.8668 21.0475 35.2115C20.5675 35.4395 20.0569 35.535 19.5353 35.5671C19.0339 35.5979 18.7114 35.3547 18.6093 34.8555C18.4309 33.983 18.6955 33.233 19.3149 32.6079C19.5125 32.4085 19.7721 32.2948 20.0542 32.2904C20.7658 32.2796 21.3203 31.935 21.8271 31.4848C22.7522 30.6629 23.4853 29.6818 24.1202 28.6299C25.6124 26.158 26.8718 23.5732 27.8096 20.8379C27.9192 20.5181 28.01 20.1904 28.0872 19.8612C28.1487 19.5986 28.1283 19.5621 27.873 19.5018C27.4567 19.4034 27.1974 19.1343 27.0011 18.7778C26.7774 18.3714 26.6489 17.9341 26.6143 17.4756C26.4923 15.858 26.8632 14.3661 27.8228 13.0472C28.3461 12.3281 28.9884 11.7474 29.8918 11.534C30.2655 11.4456 30.6438 11.4445 31.0182 11.4946C31.3543 11.5396 31.6112 11.7319 31.8223 12.0025C32.3706 12.7053 32.2936 14.0913 31.7548 14.8065C31.5605 15.0642 31.2722 15.152 30.9643 15.1748C30.7318 15.192 30.4983 15.185 30.2613 15.1716C30.6466 15.4599 31.0608 15.6192 31.5526 15.4914C32.221 15.3176 32.8087 14.9871 33.3434 14.5618C33.8225 14.1808 34.2918 13.7871 34.7566 13.3887C35.6033 12.6629 36.2113 12.653 37.0776 13.3704C37.9293 14.0756 38.5406 14.9552 38.9401 15.9822C39.0199 16.1874 39.08 16.404 39.1186 16.6209C39.2089 17.1274 39.1738 17.6222 38.796 18.013C38.319 18.5066 38.0648 19.1161 37.8348 19.7412C37.2439 21.3474 36.8164 22.9991 36.5116 24.6809C36.2165 26.3096 35.9768 27.9464 36.02 29.6097C36.0323 30.0802 36.1054 30.5426 36.2319 30.9966C36.2778 31.1616 36.3427 31.3164 36.4429 31.4555C36.6588 31.7554 36.9396 31.8558 37.2982 31.7587C37.6605 31.6606 37.9544 31.4496 38.2235 31.1963C38.9611 30.5023 39.5324 29.6787 40.067 28.8274C40.2678 28.5076 40.4484 28.1751 40.6448 27.8524C40.7991 27.599 40.8537 27.3316 40.8454 27.0335C40.7803 24.6935 41.2373 22.4473 42.1015 20.2807C42.9306 18.2021 44.1542 16.3936 45.8362 14.905C47.0148 13.8619 48.3566 13.1542 49.9256 12.9186C50.6365 12.8119 51.3481 12.7789 52.0643 12.9002C53.393 13.1254 54.2561 13.9167 54.7983 15.1085C55.2607 16.1247 55.3345 17.2017 55.2234 18.2881C55.043 20.0521 54.471 21.6927 53.53 23.1969C52.936 24.1463 52.1833 24.9511 51.2511 25.582C50.3097 26.219 49.2694 26.4151 48.1573 26.2727C47.6368 26.206 47.2045 25.942 46.8289 25.5949C46.7935 25.6162 46.756 25.6275 46.7554 25.6407C46.6878 26.9347 46.6949 28.2249 47.1771 29.4539C47.6831 30.7432 48.5797 31.6259 49.9821 31.844C51.2054 32.0342 52.3911 31.9029 53.4841 31.226C54.5663 30.5558 55.4592 29.7002 56.1887 28.6646C56.3026 28.503 56.3884 28.3329 56.4292 28.1362C56.9854 25.4578 57.6614 22.8047 58.1559 20.1134C58.4358 18.5895 58.6956 17.0599 58.6679 15.4998C58.6584 14.9629 58.5844 14.4359 58.4507 13.9168C58.3251 13.4292 58.4587 13.199 58.9395 13.0247C60.4497 12.4776 62.3246 13.2644 63.0879 14.3042C63.3801 14.7023 63.5052 15.129 63.4049 15.6262C63.1626 16.8273 62.8346 18.0078 62.564 19.202C62.1409 21.0696 61.6854 22.93 61.3186 24.81C61.3047 24.8811 61.2537 24.9535 61.3258 25.0539C61.3813 24.8908 61.4335 24.7461 61.4799 24.5996C62.2706 22.1043 63.3437 19.735 64.6745 17.4831C65.399 16.2574 66.2151 15.0968 67.2262 14.0848C67.5125 13.7982 67.8242 13.5415 68.167 13.3249C68.5746 13.0675 69.0159 12.9274 69.5026 12.9699C70.2589 13.0359 71.0035 13.1505 71.6811 13.5268C72.0944 13.7564 72.4595 14.0384 72.7689 14.4039C73.1702 14.878 73.3159 15.4296 73.3488 16.0279C73.3591 16.2166 73.2782 16.3845 73.217 16.5551C72.6493 18.1375 72.1097 19.7293 71.6585 21.3491C71.3998 22.2776 71.1698 23.2142 70.9293 24.1477C70.9081 24.2302 70.8612 24.3162 70.9378 24.4328C71.0668 24.0854 71.1848 23.7573 71.3101 23.432C72.3198 20.811 73.5072 18.2787 75.0754 15.9387C75.562 15.2127 76.0948 14.5215 76.713 13.9001C76.7681 13.8447 76.8246 13.7906 76.8814 13.7368C77.5364 13.1144 78.2712 12.8371 79.1991 13.0387C80.4364 13.3075 81.5223 13.7945 82.3146 14.8206C82.6378 15.2392 82.7673 15.723 82.808 16.2391C82.8177 16.3608 82.7818 16.469 82.7305 16.5769C81.972 18.172 81.4575 19.8538 80.9808 21.5478C80.3839 23.6693 79.9073 25.818 79.6006 28.0014C79.492 28.7747 79.3969 29.5518 79.4187 30.3359C79.4299 30.7397 79.4646 31.1436 79.5718 31.5345C79.77 32.2564 80.2915 32.4792 80.9529 32.1191C81.467 31.8391 81.842 31.3978 82.2042 30.9541C82.8655 30.1439 83.4062 29.2523 83.9108 28.3385C83.9674 28.2359 84.0068 28.1211 84.0762 28.0285C84.429 27.5569 84.5123 27.0098 84.5384 26.4442C84.6378 24.2874 85.0121 22.1745 85.5729 20.0935C85.9674 18.6298 86.4849 17.2111 87.2141 15.8777C87.6094 15.1549 88.0773 14.481 88.6727 13.9046C89.2312 13.3639 89.8772 12.9775 90.6671 12.9287C91.4374 12.881 92.2038 12.9456 92.9339 13.2268C93.2055 13.3314 93.4329 13.5075 93.6025 13.749C93.7365 13.9397 93.7617 14.1478 93.6097 14.329C92.1485 16.0695 91.5572 18.2007 90.9438 20.3138C90.3514 22.3546 89.9011 24.4306 89.6049 26.5367C89.4525 27.6205 89.3522 28.7107 89.3548 29.8059C89.3562 30.3386 89.3958 30.8738 89.5091 31.3976C89.7054 32.3061 90.2319 32.523 91.0183 32.02C91.5095 31.7058 91.8772 31.2622 92.2283 30.8089C92.9727 29.848 93.5867 28.8036 94.1585 27.7334C94.2219 27.6147 94.2428 27.4893 94.2573 27.359C94.5913 24.3367 95.1808 21.361 95.9099 18.4121C96.3853 16.4893 96.9121 14.5804 97.5752 12.712C97.6094 12.6156 97.6325 12.5154 97.6753 12.3666C96.5654 12.3272 95.4927 12.5019 94.4167 12.5383C94.4084 12.5131 94.4 12.4878 94.3917 12.4625C94.583 12.3165 94.7804 12.1778 94.9644 12.023C95.7213 11.3864 96.1169 10.5845 96.0218 9.58329C95.9694 9.03244 95.7726 8.5199 95.5086 8.03469C95.2332 7.52844 94.8898 7.07072 94.5095 6.63919C94.4439 6.56475 94.339 6.51096 94.3507 6.36548C94.5298 6.31345 94.7044 6.38624 94.8742 6.41446C95.9296 6.59 96.9948 6.65627 98.0608 6.70475C98.5681 6.72778 99.0771 6.7198 99.5821 6.78001C99.8811 6.81566 100.052 6.70737 100.195 6.43034C100.775 5.30565 101.425 4.22193 102.207 3.22281C102.545 2.79093 102.903 2.37981 103.346 2.04844C103.851 1.67062 104.399 1.44562 105.046 1.45907C105.66 1.47186 106.269 1.49457 106.857 1.69689C107.12 1.78735 107.357 1.91844 107.549 2.12334C107.831 2.42472 107.841 2.63376 107.556 2.93597C106.597 3.95041 105.882 5.12749 105.241 6.35606C105.211 6.4138 105.179 6.47108 105.155 6.53148C105.08 6.72097 105.104 6.76429 105.306 6.77578C105.462 6.78466 105.619 6.7872 105.775 6.77422C106.971 6.67418 108.171 6.72895 109.369 6.70099C109.395 6.70041 109.421 6.69854 109.447 6.70041C109.922 6.73501 110.225 6.57101 110.453 6.10249C110.956 5.07104 111.596 4.11567 112.306 3.21124C112.629 2.79992 112.992 2.42445 113.393 2.09054C113.887 1.67886 114.442 1.43495 115.11 1.45774C115.724 1.47869 116.334 1.49254 116.923 1.69091C117.2 1.78403 117.448 1.91895 117.647 2.13659C117.914 2.42879 117.932 2.64447 117.653 2.91842C116.682 3.87398 116.018 5.03859 115.375 6.21899C115.35 6.26469 115.323 6.30973 115.303 6.35755C115.258 6.46537 115.29 6.5377 115.411 6.54993C115.501 6.55908 115.593 6.55826 115.684 6.55834C116.713 6.55924 117.743 6.53957 118.769 6.63434C119.041 6.6594 119.315 6.68532 119.582 6.74138C120.125 6.85558 120.518 7.17565 120.774 7.66786C121.084 8.26555 121.152 8.91875 121.133 9.56867C121.102 10.5868 120.919 11.5879 120.636 12.5683C120.618 12.6308 120.601 12.6937 120.584 12.7564C120.53 12.9481 120.415 12.9961 120.228 12.9291C119.749 12.7569 119.253 12.6473 118.752 12.5575C117.764 12.3803 116.768 12.2743 115.767 12.2087C114.988 12.1576 114.209 12.1024 113.429 12.0639C112.994 12.0424 112.992 12.0555 112.849 12.4688C111.379 16.7149 110.291 21.0567 109.615 25.4993C109.364 27.1492 109.208 28.8084 109.266 30.4818C109.281 30.9134 109.315 31.3414 109.446 31.754C109.618 32.2937 109.881 32.4295 110.427 32.2654C110.822 32.1466 111.148 31.9126 111.452 31.6387C112.395 30.789 113.049 29.7253 113.708 28.6591C114.158 27.9326 114.363 27.155 114.493 26.3189C114.92 23.5785 115.789 20.981 117.182 18.5722C117.738 17.6101 118.39 16.7159 119.179 15.9285C119.739 15.3692 120.367 14.9099 121.149 14.7096C121.317 14.6668 121.419 14.5677 121.505 14.4299C121.663 14.1744 121.855 13.9453 122.06 13.7254C122.641 13.105 123.356 12.89 124.186 12.9784C125.393 13.1069 126.355 13.6612 127.1 14.6132C127.858 15.581 128.267 16.6985 128.514 17.8842C128.832 19.4126 128.881 20.9538 128.766 22.51C128.627 24.3799 128.269 26.2022 127.658 27.9708C127.259 29.1278 126.825 30.274 126.33 31.3953C126.304 31.4548 126.277 31.5141 126.249 31.573C126.182 31.7155 126.23 31.7864 126.381 31.8214C126.739 31.904 127.105 31.9309 127.466 31.9473C129.377 32.0339 131.203 31.6918 132.901 30.7841C134.362 30.0036 135.565 28.923 136.553 27.5984C136.762 27.319 136.969 27.0388 137.221 26.6997C137.24 26.928 137.148 27.0429 137.09 27.1627C136.158 29.0785 135.03 30.8749 133.78 32.597C132.029 35.0085 130.063 37.2314 127.892 39.2695C124.991 41.9923 121.817 44.3458 118.33 46.273C114.6 48.3349 110.663 49.8533 106.505 50.7918C104.815 51.1733 103.108 51.4547 101.383 51.6368C100.515 51.7284 99.6457 51.7846 98.7766 51.8536C98.6735 51.8618 98.5717 51.8697 98.478 51.9182H94.1776Z" fill="#861889"/>
<path id="path32" d="M15.1201 4.24951C15.6359 4.35061 16.0731 4.46336 16.4755 4.68171C16.8276 4.87268 17.1161 5.12856 17.313 5.47894C17.501 5.81347 17.5234 6.14273 17.2694 6.46257C17.0153 6.78245 16.8511 7.15339 16.7052 7.52979C16.4041 8.30693 16.0953 9.08199 15.8262 9.87038C14.4411 13.9275 13.1962 18.0254 12.2107 22.2008C12.0573 22.8512 12.1907 23.4061 12.4629 23.9655C12.6994 24.4513 13.0879 24.6749 13.6344 24.6327C13.8849 24.6133 14.1228 24.5667 14.351 24.4614C14.7105 24.2954 15.0182 24.058 15.3027 23.7868C16.5141 22.6316 17.3144 21.2026 17.9938 19.7003C19.0304 17.4077 19.72 15.0105 20.0849 12.5212C20.3104 10.9821 20.3938 9.43651 20.1927 7.88877C20.0619 6.88304 19.7755 5.92998 19.1319 5.11281C18.7537 4.63256 18.2749 4.31746 17.6887 4.16838C17.047 4.0052 16.3943 4.06005 15.7465 4.11964C15.5635 4.13649 15.3625 4.12726 15.1201 4.24951ZM11.5275 25.577C11.3529 26.2557 11.2623 26.8458 11.1604 27.4334C10.8778 29.0639 10.6767 30.7055 10.5452 32.3544C10.4259 33.8497 10.4037 35.3457 10.6779 36.8317C10.7466 37.2041 10.839 37.5695 10.9544 37.9296C11.1458 38.5273 10.9711 39.0032 10.4412 39.3377C9.98386 39.6263 9.47163 39.7251 8.9467 39.7224C7.83292 39.7165 6.80827 39.4236 5.95154 38.6753C5.00896 37.8522 4.5707 36.8099 4.61617 35.5595C4.69842 33.2992 5.11041 31.0829 5.52302 28.8684C6.22955 25.0763 7.09339 21.3183 8.073 17.588C8.88743 14.4866 9.8197 11.421 11.0392 8.45009C11.5047 7.31582 12.0057 6.19903 12.7241 5.19506C12.7457 5.16496 12.754 5.12544 12.7776 5.0684C12.6232 5.04799 12.5222 5.14002 12.4167 5.19761C11.3061 5.80401 10.355 6.60675 9.52672 7.55927C8.66858 8.54611 7.91193 9.60317 7.30854 10.7662C6.36259 12.5894 5.71048 14.4988 5.60312 16.5687C5.58291 16.9587 5.41504 17.0977 5.02162 17.054C4.83885 17.0337 4.66382 16.9776 4.4988 16.8996C2.93793 16.1621 1.81621 14.9897 1.11538 13.4213C0.81396 12.7468 0.794804 12.0275 0.955133 11.3119C1.21734 10.1416 1.73571 9.07593 2.35302 8.05812C3.79607 5.67879 5.68616 3.72895 8.03989 2.24248C9.59959 1.25747 11.2876 0.573387 13.1232 0.332012C15.0528 0.0783234 16.975 0.132195 18.8382 0.769485C20.9781 1.50143 22.5881 2.8757 23.6665 4.86545C24.4618 6.33297 24.8467 7.91562 25.002 9.56873C25.0815 10.4149 25.0939 11.2608 25.0661 12.1061C24.9908 14.3896 24.5274 16.6015 23.7675 18.7525C23.1089 20.6165 22.2544 22.3829 21.1071 23.9996C20.3859 25.0158 19.5427 25.914 18.5379 26.6581C17.2455 27.6152 15.8149 27.9638 14.2229 27.7089C13.2244 27.549 12.5147 26.9869 11.9435 26.2008C11.8151 26.0242 11.7005 25.8376 11.5275 25.577Z" fill="#861889"/>
</g>
<defs>
<clipPath id="clip0_142_37493">
<rect width="136.833" height="51.8012" fill="white" transform="translate(0.583496)"/>
</clipPath>
</defs>
</svg>
