<svg width="24" height="28" viewBox="0 0 24 28" fill="none" xmlns="http://www.w3.org/2000/svg">
<g id="Frame" clip-path="url(#clip0_142_36242)">
<path id="Vector" d="M23.9999 11.6906C21.6414 11.6961 19.3407 10.9721 17.4229 9.62074V19.0454C17.4223 20.791 16.8803 22.4947 15.8694 23.9289C14.8585 25.363 13.4269 26.4592 11.7661 27.0708C10.1052 27.6825 8.29428 27.7804 6.57538 27.3515C4.85647 26.9226 3.31154 25.9874 2.14716 24.6709C0.982786 23.3544 0.254466 21.7193 0.0595889 19.9843C-0.135288 18.2493 0.212566 16.4971 1.05664 14.962C1.90071 13.4269 3.20077 12.182 4.78298 11.3939C6.36518 10.6057 8.15412 10.3118 9.91059 10.5515V15.2918C9.10683 15.0429 8.24373 15.0504 7.44456 15.3132C6.64538 15.576 5.951 16.0807 5.46056 16.7551C4.97013 17.4295 4.70873 18.2393 4.7137 19.0687C4.71866 19.8981 4.98973 20.7048 5.4882 21.3735C5.98667 22.0422 6.68704 22.5387 7.48931 22.7922C8.29157 23.0458 9.1547 23.0432 9.95542 22.7851C10.7562 22.5269 11.4535 22.0263 11.948 21.3547C12.4424 20.6831 12.7086 19.8749 12.7086 19.0454V0.621094H17.4229C17.4196 1.01298 17.453 1.40434 17.5225 1.79021V1.79021C17.6864 2.65162 18.027 3.47107 18.5236 4.19845C19.0201 4.92583 19.6622 5.54584 20.4106 6.02057C21.4753 6.71354 22.7235 7.0829 23.9999 7.08264V11.6906Z" fill="#292929"/>
</g>
<defs>
<clipPath id="clip0_142_36242">
<rect width="24" height="27" fill="white" transform="translate(0 0.621094)"/>
</clipPath>
</defs>
</svg>
