<svg width="29" height="30" viewBox="0 0 29 30" fill="none" xmlns="http://www.w3.org/2000/svg">
<g id="Frame">
<path id="Vector" d="M27.0275 8.32745C26.1011 8.73923 25.1041 9.01699 24.0581 9.14129C25.1261 8.50188 25.9451 7.48905 26.3313 6.28083C25.3323 6.87369 24.2264 7.30388 23.0483 7.53611C22.1056 6.53148 20.7618 5.90332 19.2748 5.90332C16.4199 5.90332 14.1053 8.21798 14.1053 11.0733C14.1053 11.4779 14.1508 11.8723 14.2393 12.2514C9.94248 12.0355 6.13262 9.97763 3.58266 6.84964C3.13763 7.61284 2.88289 8.50085 2.88289 9.44923C2.88289 11.2426 3.79546 12.8253 5.18272 13.7522C4.33563 13.7251 3.53816 13.4923 2.84095 13.1051C2.84044 13.1266 2.84044 13.1486 2.84044 13.1706C2.84044 15.675 4.6226 17.7641 6.9879 18.2398C6.55412 18.3575 6.09733 18.4209 5.6257 18.4209C5.29219 18.4209 4.96839 18.3887 4.65278 18.3278C5.31111 20.3816 7.22013 21.8768 9.4821 21.9182C7.71273 23.305 5.48401 24.1316 3.06142 24.1316C2.64452 24.1316 2.23274 24.107 1.82812 24.0589C4.1167 25.5265 6.83393 26.3818 9.75321 26.3818C19.263 26.3818 24.4627 18.5043 24.4627 11.6723C24.4627 11.4483 24.4581 11.2247 24.4484 11.0027C25.4581 10.2753 26.3349 9.36431 27.0275 8.32745Z" fill="#292929"/>
</g>
</svg>
